<svg xmlns="http://www.w3.org/2000/svg" viewBox="0 0 434.51 278.4"><defs><style>.cls-1{fill:#30383b}.cls-1,.cls-2,.cls-4,.cls-5,.cls-6{fill-rule:evenodd}.cls-2{fill:#f9c857}.cls-3{font-size:28.05px;fill:#231f20;font-family:Comfortaa,Comfortaa}.cls-4{fill:#c3a767}.cls-5{fill:#70c0dd}.cls-6{fill:#76a3b6}.cls-7{fill:none}.cls-8{fill:#8c8b8b}.cls-9{fill:#fff}</style></defs><title>lathe</title><a id="pos_x_anchor"><g id="pos_x"><g id="pos_x-2" data-name="pos_x"><path class="cls-1" d="M649.21 321.44v-19.62h-8.44a.87.87 0 0 1-.68-1.42l17-25.19a.87.87 0 0 1 1.21-.24.88.88 0 0 1 .24.24l17 25.24a.87.87 0 0 1-.72 1.35h-8.42v19.62a5.22 5.22 0 0 1-1.54 3.7 5.22 5.22 0 0 1-3.7 1.54h-6.66a5.25 5.25 0 0 1-5.24-5.24z" transform="translate(-466 -244.6)"/><path class="cls-2" d="M651 300.94v20.49a3.5 3.5 0 0 0 3.49 3.49h6.66a3.49 3.49 0 0 0 2.47-1 3.48 3.48 0 0 0 1-2.47v-20.51a.87.87 0 0 1 .87-.87h7.65l-15.36-22.82-15.38 22.82h7.68a.87.87 0 0 1 .92.87z" transform="translate(-466 -244.6)"/><text class="cls-3" transform="translate(178.3 23.95)">+x</text></g></g></a><g id="neg_x"><g id="neg_x-2" data-name="neg_x"><path class="cls-1" d="M667.48 448.82v19.62h8.44a.87.87 0 0 1 .68 1.42l-17 25.19a.87.87 0 0 1-1.21.24.88.88 0 0 1-.24-.24l-17-25.24a.87.87 0 0 1 .72-1.35h8.42v-19.64a5.22 5.22 0 0 1 1.54-3.7 5.22 5.22 0 0 1 3.7-1.54h6.66a5.25 5.25 0 0 1 5.24 5.24z" transform="translate(-466 -244.6)"/><path class="cls-4" d="M665.74 469.31v-20.49a3.5 3.5 0 0 0-3.49-3.49h-6.66a3.49 3.49 0 0 0-2.47 1 3.48 3.48 0 0 0-1 2.47v20.49a.87.87 0 0 1-.87.87h-7.65L658.93 493l15.36-22.82h-7.68a.87.87 0 0 1-.87-.87z" transform="translate(-466 -244.6)"/><text class="cls-3" transform="translate(177.57 272.4)">-x</text></g></g><g id="pos_z"><g id="pos_z-2" data-name="pos_z"><path class="cls-1" d="M699.36 377.05H719v-8.44a.87.87 0 0 1 1.42-.68l25.19 17a.87.87 0 0 1 .24 1.21.88.88 0 0 1-.24.24l-25.24 17a.87.87 0 0 1-1.35-.72v-8.42h-19.66a5.22 5.22 0 0 1-3.7-1.54 5.22 5.22 0 0 1-1.54-3.7v-6.66a5.25 5.25 0 0 1 5.24-5.24z" transform="translate(-466 -244.6)"/><path class="cls-5" d="M719.85 378.79h-20.49a3.5 3.5 0 0 0-3.49 3.49v6.66a3.49 3.49 0 0 0 1 2.47 3.48 3.48 0 0 0 2.47 1h20.49a.87.87 0 0 1 .87.87V401l22.82-15.36-22.82-15.36v7.68a.87.87 0 0 1-.85.83z" transform="translate(-466 -244.6)"/><text class="cls-3" transform="translate(282.37 149.98)">+z</text></g></g><g id="neg_z"><g id="neg_z-2" data-name="neg_z"><path class="cls-1" d="M618.49 394.16h-19.62v8.44a.87.87 0 0 1-1.42.68l-25.19-17a.87.87 0 0 1-.24-1.21.88.88 0 0 1 .24-.24l25.24-17a.87.87 0 0 1 1.35.72V377h19.62a5.22 5.22 0 0 1 3.7 1.54 5.22 5.22 0 0 1 1.54 3.7v6.66a5.25 5.25 0 0 1-5.24 5.24z" transform="translate(-466 -244.6)"/><path class="cls-6" d="M598 392.42h20.49a3.5 3.5 0 0 0 3.49-3.49v-6.66a3.49 3.49 0 0 0-1-2.47 3.48 3.48 0 0 0-2.47-1H598a.87.87 0 0 1-.87-.87v-7.65l-22.83 15.33L597.12 401v-7.68a.87.87 0 0 1 .88-.9z" transform="translate(-466 -244.6)"/><text class="cls-3" transform="translate(77.41 148.98)">-z</text></g></g><g id="chuck"><g id="chuck-2" data-name="chuck"><path class="cls-7" d="M54.1 124.47h7.46v6.82H54.1zm0 26.24h7.46v6.82H54.1zM37.31 121.9v38.21l9.33-1.9V123.8l-9.33-1.9zm-29.85-9.37v56.95h22.39v-56.95H7.46z"/><path class="cls-8" d="M520.1 382.72h11.19a3.58 3.58 0 0 0 3.73-3.41v-13.65a3.58 3.58 0 0 0-3.73-3.41h-14.51l-13.47-2.74v-5.79a3.58 3.58 0 0 0-3.73-3.41h-29.85a3.58 3.58 0 0 0-3.73 3.41v63.78a3.58 3.58 0 0 0 3.73 3.41h29.85a3.58 3.58 0 0 0 3.73-3.41v-5.8l13.47-2.7h14.52a3.58 3.58 0 0 0 3.73-3.41V391.9a3.58 3.58 0 0 0-3.73-3.41h-11.2v-5.77zm0-13.65h7.46v6.82h-7.46zm0 26.24h7.46v6.82h-7.46zm-24.25 18.77h-22.39v-57h22.39v57zm16.79-11.27l-9.33 1.9V366.5l9.33 1.9v34.42z" transform="translate(-466 -244.6)"/></g></g><g id="end_stop"><path class="cls-8" d="M896.78 367.46h-10.94a3.58 3.58 0 0 0-3.73 3.41v11.32h-6.9V389h6.9v11.32a3.75 3.75 0 0 0 7.46 0v-26h7.21a3.43 3.43 0 1 0 0-6.82zm-21.58 14.73V372a3.58 3.58 0 0 0-3.73-3.41h-31.71a4 4 0 0 0-1.76.41l-17.28 8.62a9.41 9.41 0 0 0-4.47 4.61H802a3.43 3.43 0 1 0 0 6.82h14.21a9.41 9.41 0 0 0 4.47 4.61l17.32 8.59a4 4 0 0 0 1.78.42h35.42v-20.48zM836 393.51l-11.76-5.87a2.26 2.26 0 0 1-1.3-2v-.07a2.25 2.25 0 0 1 1.3-2L836 377.7zm31.71 2.34h-24.22v-20.48h24.25z" transform="translate(-466 -244.6)" id="endstop"/></g><g id="cross_slide"><g id="cross_slide-2" data-name="cross_slide"><path class="cls-8" d="M680.38 430.42v-11.95h-42.91v11.94a3.58 3.58 0 0 0 3.73 3.41h35.45a3.58 3.58 0 0 0 3.73-3.4z" transform="translate(-466 -244.6)"/><path class="cls-9" d="M178.93 173.87h27.98v8.53h-27.98z"/><path class="cls-8" d="M676.64 337.38H641.2a3.58 3.58 0 0 0-3.73 3.41v77.68h42.91v-77.68a3.58 3.58 0 0 0-3.74-3.41z" transform="translate(-466 -244.6)"/><path class="cls-9" d="M178.93 99.6h27.98v77.29h-27.98z"/></g></g></svg>