<svg id="digit" xmlns="http://www.w3.org/2000/svg" viewBox="0 0 142 202"><defs><style>.cls-1{fill:#e6e6e6;stroke:#fff;stroke-linecap:square;stroke-width:2px}</style></defs><title>segment-digit</title><path id="segment_I" class="cls-1" d="M920 460l30 50v20h-10l-30-50v-20z" transform="translate(-889 -439)"/><path id="segment_J" class="cls-1" d="M1000 460l-30 50v20h10l30-50v-20z" transform="translate(-889 -439)"/><path id="segment_k" class="cls-1" d="M1000 620l-30-50v-20h10l30 50v20z" transform="translate(-889 -439)"/><path id="segment_L" class="cls-1" d="M920 620l30-50v-20h-10l-30 50v20z" transform="translate(-889 -439)"/><path id="segment_a" class="cls-1" d="M910 440h40l10 10-10 10h-40l-10-10z" transform="translate(-889 -439)"/><path id="segment_b" class="cls-1" d="M970 440h40l10 10-10 10h-40l-10-10z" transform="translate(-889 -439)"/><path id="segment_h" class="cls-1" d="M890 530v-70l10-10 10 10v70l-10 10z" transform="translate(-889 -439)"/><path id="segment_g" class="cls-1" d="M890 620v-70l10-10 10 10v70l-10 10z" transform="translate(-889 -439)"/><path id="segment_c" class="cls-1" d="M1010 530v-70l10-10 10 10v70l-10 10z" transform="translate(-889 -439)"/><path id="segment_d" class="cls-1" d="M1010 620v-70l10-10 10 10v70l-10 10z" transform="translate(-889 -439)"/><path id="segment_f" class="cls-1" d="M910 620h40l10 10-10 10h-40l-10-10z" transform="translate(-889 -439)"/><path id="segment_e" class="cls-1" d="M970 620h40l10 10-10 10h-40l-10-10z" transform="translate(-889 -439)"/><path id="segment_q" class="cls-1" d="M910 530h40l10 10-10 10h-40l-10-10z" transform="translate(-889 -439)"/><path id="segment_o" class="cls-1" d="M970 530h40l10 10-10 10h-40l-10-10z" transform="translate(-889 -439)"/><path id="segment_m" class="cls-1" d="M71 11L61 21v28l10-10 10 10V21L71 11z"/><path id="segment_n" class="cls-1" d="M970 489v40l-10 10-10-10v-40l10-10z" transform="translate(-889 -439)"/><path id="segment_p" class="cls-1" d="M71 191l10-10v-28l-10 10-10-10v28l10 10z"/><path id="segment_r" class="cls-1" d="M950 592v-40l10-10 10 10v40l-10 10z" transform="translate(-889 -439)"/></svg>