<svg xmlns="http://www.w3.org/2000/svg" viewBox="0 0 264 87"><title>octocnc_sprites</title><g id="logo"><text transform="translate(111.77 46.06)" font-size="33.83" fill="#6fc0de" font-family="OpenSans-Bold, Open Sans" font-weight="700">OctoCNC</text><text transform="translate(117.39 65.67)" font-size="14.56" fill="#3a7a91" font-family="OpenSans-Italic, Open Sans" font-style="italic">powered by Octoprint</text><path d="M47.4,33.21c25.38-23.43,53.78,13.63,53.79,13,.65-22.67-12.7-34.74-30-40.13-20.5-6.4-46.56-.2-58.8,20.37-13.31,22.38-10,41-5,56.6L58,82.86C51.62,65.61,32.92,46.57,47.4,33.21Z" fill="#3a7a91"/><path d="M37.68,28.3C71.85-3.57,100.88,40,101.33,45.79c.52-22.47-12.78-34.46-30-39.83-20.5-6.4-46.56-.2-58.8,20.37C-.79,48.79,2.61,67.43,7.63,83.09L32.41,83C27.88,61.71,22.21,42.73,37.68,28.3Z" fill="#6fc0de"/></g></svg>