<?xml version="1.0" encoding="iso-8859-1"?>
<!-- Generator: Adobe Illustrator 19.0.0, SVG Export Plug-In . SVG Version: 6.00 Build 0)  -->
<svg version="1.1" id="Layer_1" xmlns="http://www.w3.org/2000/svg" xmlns:xlink="http://www.w3.org/1999/xlink" x="0px" y="0px"
	 viewBox="0 0 321.493 321.493" style="enable-background:new 0 0 321.493 321.493;" xml:space="preserve">
<g>
	<g>
		<path d="M0.107,33.493v80.533c0,22.187,18.133,40.32,40.32,40.32c22.187,0,40.32-18.027,40.427-40.32V33.493H0.107z
			 M66.987,114.027C66.88,128.64,55.04,140.48,40.427,140.48s-26.453-11.84-26.453-26.453V47.36h53.013V114.027z"/>
	</g>
</g>
<g>
	<g>
		<path d="M20.053,0v47.253h40.64V0H20.053z M46.827,33.387H33.92v-19.52h12.907V33.387z"/>
	</g>
</g>
<g>
	<g>
		<rect x="26.987" y="73.6" width="26.773" height="13.867"/>
	</g>
</g>
<g>
	<g>
		<rect x="26.987" y="100.267" width="26.773" height="13.867"/>
	</g>
</g>
<g>
	<g>
		<path d="M301.12,167.253h-66.88c-11.2,0-20.267,9.067-20.267,20.267v93.867h107.413V187.52
			C321.387,176.32,312.32,167.253,301.12,167.253z M307.52,267.52h-79.68v-80c0-3.52,2.88-6.4,6.4-6.4h66.88
			c3.52,0,6.4,2.88,6.4,6.4V267.52z"/>
	</g>
</g>
<g>
	<g>
		<path d="M234.027,267.52v53.973h67.413V267.52H234.027z M287.573,307.627h-39.68v-26.24h39.68V307.627z"/>
	</g>
</g>
<g>
	<g>
		<rect x="247.68" y="200.64" width="40.107" height="13.867"/>
	</g>
</g>
<g>
	<g>
		<rect x="247.68" y="227.413" width="40.107" height="13.867"/>
	</g>
</g>
<g>
	<g>
		<path d="M210.987,40.107c-35.2,0-63.787,28.587-63.787,63.787v153.813c0,27.52-22.4,49.92-49.92,49.92
			c-27.52,0-49.92-22.4-49.92-49.92V147.413H33.493v110.293c0,35.2,28.587,63.787,63.787,63.787s63.787-28.587,63.787-63.787
			V103.893c0-27.52,22.4-49.92,49.92-49.92c27.52,0,49.92,22.4,49.92,49.92v70.187h13.867v-70.187
			C274.773,68.693,246.187,40.107,210.987,40.107z"/>
	</g>
</g>
<g>
</g>
<g>
</g>
<g>
</g>
<g>
</g>
<g>
</g>
<g>
</g>
<g>
</g>
<g>
</g>
<g>
</g>
<g>
</g>
<g>
</g>
<g>
</g>
<g>
</g>
<g>
</g>
<g>
</g>
</svg>
