<?xml version="1.0" encoding="utf-8"?>
<!-- Generator: Adobe Illustrator 21.0.2, SVG Export Plug-In . SVG Version: 6.00 Build 0)  -->
<svg version="1.1"
	 id="svg4693" inkscape:version="0.48.4 r9939" sodipodi:docname="octoprint-favicon-apple.svg" xmlns:cc="http://creativecommons.org/ns#" xmlns:dc="http://purl.org/dc/elements/1.1/" xmlns:inkscape="http://www.inkscape.org/namespaces/inkscape" xmlns:rdf="http://www.w3.org/1999/02/22-rdf-syntax-ns#" xmlns:sodipodi="http://sodipodi.sourceforge.net/DTD/sodipodi-0.dtd" xmlns:svg="http://www.w3.org/2000/svg"
	 xmlns="http://www.w3.org/2000/svg" xmlns:xlink="http://www.w3.org/1999/xlink" x="0px" y="0px" viewBox="0 0 16 16"
	 style="enable-background:new 0 0 16 16;" xml:space="preserve">
<style type="text/css">
	.st0{fill:#6FC0DE;}
	.st1{fill:#3A7A91;}
</style>
<sodipodi:namedview  bordercolor="#666666" borderopacity="1.0" id="base" inkscape:current-layer="layer1" inkscape:cx="11.852657" inkscape:cy="8.0632297" inkscape:document-units="px" inkscape:pageopacity="0.0" inkscape:pageshadow="2" inkscape:window-height="1017" inkscape:window-maximized="1" inkscape:window-width="1920" inkscape:window-x="1912" inkscape:window-y="760" inkscape:zoom="31.678384" pagecolor="#ffffff" showgrid="false">
	</sodipodi:namedview>
<path id="path3017-7-8" inkscape:connector-curvature="0" sodipodi:nodetypes="ccccccccscccccsccccccccccscc" class="st0" d="
	M8.5,0.8c-2.1,0-4,0.8-5.7,2.3c-1.1,0.9-1.8,2-2.3,3.2c-0.4,1.8-0.4,3.5-0.1,5.1c0.2,1,0.6,2.3,1.2,3.7h4.2c-0.3-0.9-0.6-1.5-0.8-2
	C3.8,11,3.5,8.9,4.2,6.9c0.2-0.6,0.6-1.2,1-1.8c0.1-0.2,0.3-0.4,0.5-0.6c0.3-0.3,0.9-0.7,1.8-1.2C7.9,3.2,8.3,3.1,8.8,3
	c0.1,0,0.4-0.1,1-0.1c0.4,0,1,0,1.7,0.2c0.7,0.2,1.2,0.4,1.6,0.7c0.5,0.3,0.9,0.7,1.2,1.1c0.1,0.1,0.2,0.2,0.2,0.3
	c0.1,0.1,0.3,0.4,0.5,0.7c0.1,0.1,0.2,0.2,0.2,0.3c0,0.1,0.1,0.1,0.1,0.1c0.1,0.2,0.2,0.3,0.3,0.5c0.1,0.1,0.1,0.3,0.2,0.4
	c0.1-0.4,0.1-0.9-0.1-1.5c-0.2-0.7-0.4-1.2-0.6-1.5c-0.5-0.6-0.8-1-0.9-1.1c0,0-0.3-0.2-0.8-0.6c-0.5-0.3-1-0.6-1.5-0.8
	C10.8,1,9.7,0.8,8.5,0.8z"/>
<path id="path3101-4-0" inkscape:connector-curvature="0" class="st1" d="M10.1,2.8c-0.1,0-0.2,0-0.3,0c-0.6,0.1-1,0.1-1,0.1
	C8.3,3,7.9,3.2,7.5,3.4c-1,0.5-1.6,0.9-1.8,1.2C5.5,4.7,5.3,4.9,5.1,5.1c-0.4,0.6-0.7,1.2-1,1.8c-0.7,2-0.4,4.1,0.8,6.2
	c0.3,0.5,0.6,1.2,0.8,2h4.3c-0.2-0.5-0.4-1-0.7-1.6c-0.2-0.5-0.5-1-0.9-1.5c0,0,0,0,0,0c-0.1-0.1-0.1-0.2-0.2-0.2
	c0,0-0.1-0.1-0.1-0.1l-0.2-0.3c-0.1-0.1-0.1-0.3-0.2-0.4c-0.2-0.3-0.4-0.6-0.6-0.8C7.1,10,7,9.8,6.9,9.6C5.8,8,5.9,6.6,7.2,5.4
	C7.6,5.1,8,4.8,8.5,4.6c0.3-0.1,0.7-0.2,1-0.3c2.3-0.3,4.4,0.5,6.1,2.3c-0.1-0.1-0.2-0.3-0.3-0.5c0-0.1-0.1-0.1-0.1-0.1
	c0-0.1-0.1-0.2-0.2-0.3c-0.2-0.3-0.4-0.5-0.5-0.7c-0.1-0.1-0.1-0.2-0.2-0.3c-0.3-0.4-0.7-0.7-1.2-1.1c-0.4-0.3-0.9-0.5-1.6-0.7
	C11,2.9,10.5,2.8,10.1,2.8L10.1,2.8z"/>
</svg>
