<svg xmlns="http://www.w3.org/2000/svg" viewBox="0 0 259.28 79.54"><defs><style>.cls-1,.cls-4{fill:#3a7a91;}.cls-2,.cls-3{fill:#6fc0de;}.cls-3{font-size:33.83px;font-family:OpenSans-Bold, Open Sans;font-weight:700;}.cls-4{font-size:14.56px;font-family:OpenSans-Italic, Open Sans;font-style:italic;}</style></defs><title>Asset 2</title><g id="Layer_2" data-name="Layer 2"><g id="Layer_5" data-name="Layer 5"><path class="cls-1" d="M44.34,29.66c25.38-23.43,53.78,13.63,53.79,13,.65-22.67-12.7-34.74-30-40.13-20.5-6.4-46.56-.2-58.8,20.37-13.31,22.38-10,41-5,56.6L55,79.31C48.56,62.06,29.86,43,44.34,29.66Z"/><path class="cls-2" d="M34.62,24.75C68.79-7.12,97.83,36.41,98.27,42.24c.52-22.47-12.78-34.46-30-39.83C47.81-4,21.75,2.21,9.51,22.78-3.85,45.24-.45,63.88,4.58,79.54l24.77-.11C24.82,58.16,19.15,39.18,34.62,24.75Z"/><text class="cls-3" transform="translate(108.71 42.51)">OctoCNC</text><text class="cls-4" transform="translate(114.33 62.12)">powered by Octoprint</text></g></g></svg>