<svg xmlns="http://www.w3.org/2000/svg" viewBox="0 0 264 87"><title>octocnc_sprites</title><g id="logo"><path d="M91.29,80.81a2.64,2.64,0,0,1-1.53-.45,2.92,2.92,0,0,1-1-1.26h-.09l0,.34q0,.23-.09.63t-1,5H86l3-14.28h1.25L90,72.65h.07a4.42,4.42,0,0,1,3.35-2,2.36,2.36,0,0,1,1.94.88A3.81,3.81,0,0,1,96.11,74a9.55,9.55,0,0,1-.62,3.5,5.81,5.81,0,0,1-1.72,2.48A3.84,3.84,0,0,1,91.29,80.81ZM93,71.86a2.6,2.6,0,0,0-1.76.85,6.09,6.09,0,0,0-1.42,2.15,7,7,0,0,0-.53,2.65,2.12,2.12,0,0,0,.5,1.51,1.89,1.89,0,0,0,1.44.53,2.38,2.38,0,0,0,1.66-.73,5.11,5.11,0,0,0,1.24-2.07,8.62,8.62,0,0,0,.47-2.85Q94.56,71.86,93,71.86Z" fill="#3a7a91"/><path d="M102.8,70.65a3.6,3.6,0,0,1,2.7,1,3.81,3.81,0,0,1,1,2.78,8,8,0,0,1-.65,3.19A5.51,5.51,0,0,1,104.09,80a4.1,4.1,0,0,1-2.5.82,3.58,3.58,0,0,1-2.71-1,3.84,3.84,0,0,1-1-2.78,8,8,0,0,1,.66-3.21,5.45,5.45,0,0,1,1.77-2.31A4.13,4.13,0,0,1,102.8,70.65Zm2.12,3.59a2.46,2.46,0,0,0-.56-1.68,1.92,1.92,0,0,0-1.52-.64,2.63,2.63,0,0,0-1.76.67,4.28,4.28,0,0,0-1.21,1.85,7.7,7.7,0,0,0-.43,2.63,2.65,2.65,0,0,0,.57,1.82,2.08,2.08,0,0,0,1.64.64,2.48,2.48,0,0,0,1.68-.66A4.29,4.29,0,0,0,104.5,77,8.44,8.44,0,0,0,104.92,74.24Z" fill="#3a7a91"/><path d="M114.82,80.63l-.29-5.41q0-.85,0-1.55v-1.4h-.08L114,73.33l-.75,1.7-2.62,5.6h-1.82l-.39-9.86h1.48l.16,5.34v.79q0,1.32-.07,2.42H110q.42-1.12,1.23-2.9l2.65-5.66h1.64l.33,5.34q.05,1.51.05,2.36V79l0,.38H116q.25-.77.75-2t2.91-6.59h1.6l-4.55,9.86Z" fill="#3a7a91"/><path d="M125,80.81a3.44,3.44,0,0,1-2.6-1,3.75,3.75,0,0,1-.94-2.72,8.09,8.09,0,0,1,.67-3.24,6,6,0,0,1,1.78-2.41,3.87,3.87,0,0,1,2.44-.86,3.09,3.09,0,0,1,2.07.6,2.09,2.09,0,0,1,.69,1.67,2.85,2.85,0,0,1-1.49,2.54,8.18,8.18,0,0,1-4.27.92H123l0,.72a2.78,2.78,0,0,0,.55,1.84,2.11,2.11,0,0,0,1.71.66,4.47,4.47,0,0,0,1.17-.16,9,9,0,0,0,1.49-.59V80.1a8.14,8.14,0,0,1-1.49.55A6.08,6.08,0,0,1,125,80.81Zm1.25-8.93a2.4,2.4,0,0,0-1.74.85,5.52,5.52,0,0,0-1.25,2.35h.11a7.35,7.35,0,0,0,3.14-.54A1.68,1.68,0,0,0,127.59,73a1.05,1.05,0,0,0-.33-.79A1.45,1.45,0,0,0,126.23,71.88Z" fill="#3a7a91"/><path d="M136.4,70.6a4.1,4.1,0,0,1,1.08.13l-.32,1.35a4,4,0,0,0-.94-.12,2.5,2.5,0,0,0-1.53.54,4.72,4.72,0,0,0-1.25,1.5,7.62,7.62,0,0,0-.79,2.13l-1,4.51h-1.51l2.1-9.86h1.25l-.2,1.83h.09a8.87,8.87,0,0,1,1.07-1.23,3.38,3.38,0,0,1,.89-.58A2.55,2.55,0,0,1,136.4,70.6Z" fill="#3a7a91"/><path d="M141.35,80.81a3.44,3.44,0,0,1-2.6-1,3.75,3.75,0,0,1-.94-2.72,8.09,8.09,0,0,1,.67-3.24,6,6,0,0,1,1.78-2.41,3.86,3.86,0,0,1,2.44-.86,3.09,3.09,0,0,1,2.07.6,2.09,2.09,0,0,1,.69,1.67A2.85,2.85,0,0,1,144,75.4a8.18,8.18,0,0,1-4.27.92h-.3l0,.72a2.78,2.78,0,0,0,.55,1.84,2.11,2.11,0,0,0,1.71.66,4.48,4.48,0,0,0,1.17-.16,9,9,0,0,0,1.49-.59V80.1a8.13,8.13,0,0,1-1.49.55A6.08,6.08,0,0,1,141.35,80.81Zm1.25-8.93a2.4,2.4,0,0,0-1.74.85,5.53,5.53,0,0,0-1.25,2.35h.11a7.35,7.35,0,0,0,3.14-.54A1.68,1.68,0,0,0,144,73a1.05,1.05,0,0,0-.33-.79A1.44,1.44,0,0,0,142.6,71.88Z" fill="#3a7a91"/><path d="M151.76,70.61a2.62,2.62,0,0,1,2.53,1.71h.09a20.64,20.64,0,0,1,.4-2.46l.7-3.22H157l-3,14h-1.25l.2-1.88h-.07a6.74,6.74,0,0,1-1.7,1.59,3.18,3.18,0,0,1-1.64.47,2.36,2.36,0,0,1-2-.88,3.83,3.83,0,0,1-.7-2.45,9.32,9.32,0,0,1,.65-3.53,5.88,5.88,0,0,1,1.75-2.47A3.88,3.88,0,0,1,151.76,70.61Zm-1.71,8.95a2.62,2.62,0,0,0,1.74-.84,5.9,5.9,0,0,0,1.43-2.15,7.09,7.09,0,0,0,.53-2.67,2.16,2.16,0,0,0-.49-1.52,1.84,1.84,0,0,0-1.41-.52,2.4,2.4,0,0,0-1.69.74,5.21,5.21,0,0,0-1.25,2.09,8.49,8.49,0,0,0-.47,2.83Q148.44,79.56,150.05,79.56Z" fill="#3a7a91"/><path d="M166.33,80.81a2.62,2.62,0,0,1-1.53-.46,2.81,2.81,0,0,1-1-1.25h-.09l-.63,1.53H162l3-14h1.51L165.73,70q-.25,1.16-.68,2.7h.08a6.57,6.57,0,0,1,1.65-1.56,3.17,3.17,0,0,1,1.68-.5,2.39,2.39,0,0,1,2,.89,3.83,3.83,0,0,1,.71,2.45,9.56,9.56,0,0,1-.62,3.48,5.82,5.82,0,0,1-1.72,2.49A3.84,3.84,0,0,1,166.33,80.81ZM168,71.86a2.6,2.6,0,0,0-1.76.85,6.1,6.1,0,0,0-1.42,2.15,7,7,0,0,0-.53,2.65,2.12,2.12,0,0,0,.5,1.51,1.89,1.89,0,0,0,1.44.53,2.38,2.38,0,0,0,1.66-.73,5.11,5.11,0,0,0,1.24-2.07,8.63,8.63,0,0,0,.47-2.85Q169.6,71.86,168,71.86Z" fill="#3a7a91"/><path d="M172.94,70.78h1.51l.67,4.9q.09.62.18,1.83t.08,1.95h.05q.31-.78.78-1.8t.69-1.4l2.92-5.48h1.6L175.17,82.3a6.5,6.5,0,0,1-1.65,2.15,3.23,3.23,0,0,1-2,.6,4.27,4.27,0,0,1-1.26-.19V83.65a4.25,4.25,0,0,0,1.18.16,1.87,1.87,0,0,0,1.26-.45,4.91,4.91,0,0,0,1-1.34l.68-1.22Z" fill="#3a7a91"/><path d="M198,72.47a11.24,11.24,0,0,1-.79,4.33,6.64,6.64,0,0,1-2.27,3,5.73,5.73,0,0,1-3.41,1A4.73,4.73,0,0,1,188,79.47a5.24,5.24,0,0,1-1.29-3.77,10.65,10.65,0,0,1,.86-4.33,7.08,7.08,0,0,1,2.37-3,5.76,5.76,0,0,1,3.4-1.06,4.43,4.43,0,0,1,3.45,1.39A5.46,5.46,0,0,1,198,72.47Zm-4.83-3.83a3.89,3.89,0,0,0-2.53.91A5.86,5.86,0,0,0,189,72.08a10,10,0,0,0-.62,3.58,4.09,4.09,0,0,0,.88,2.79,3,3,0,0,0,2.39,1,3.8,3.8,0,0,0,2.45-.88,5.84,5.84,0,0,0,1.71-2.51,10,10,0,0,0,.63-3.62,4.21,4.21,0,0,0-.85-2.79A2.9,2.9,0,0,0,193.21,68.64Z" fill="#3a7a91"/><path d="M203.17,80.81a3.35,3.35,0,0,1-3.67-3.68,8.19,8.19,0,0,1,.67-3.32A5.63,5.63,0,0,1,202,71.45a4.39,4.39,0,0,1,2.64-.85,6.59,6.59,0,0,1,2.41.46l-.42,1.27a5.09,5.09,0,0,0-2-.46,2.82,2.82,0,0,0-1.84.69,4.52,4.52,0,0,0-1.3,1.92,7.37,7.37,0,0,0-.47,2.67,2.52,2.52,0,0,0,.6,1.79,2.15,2.15,0,0,0,1.65.64,4.07,4.07,0,0,0,1.22-.18,11.24,11.24,0,0,0,1.13-.42v1.29A5.4,5.4,0,0,1,203.17,80.81Z" fill="#3a7a91"/><path d="M210.46,79.58a4.86,4.86,0,0,0,1.29-.23v1.16a4.12,4.12,0,0,1-.76.22,3.9,3.9,0,0,1-.72.09,2.5,2.5,0,0,1-1.72-.54,2,2,0,0,1-.6-1.6,6.55,6.55,0,0,1,.16-1.35l1.14-5.41h-1.55l.13-.66,1.66-.7,1.13-2.05h.88L211,70.78h2.46l-.23,1.14h-2.46l-1.16,5.43a6.42,6.42,0,0,0-.16,1.19,1.07,1.07,0,0,0,.26.77A1,1,0,0,0,210.46,79.58Z" fill="#3a7a91"/><path d="M218.66,70.65a3.6,3.6,0,0,1,2.7,1,3.81,3.81,0,0,1,1,2.78,8,8,0,0,1-.65,3.19A5.51,5.51,0,0,1,219.95,80a4.09,4.09,0,0,1-2.5.82,3.58,3.58,0,0,1-2.71-1,3.84,3.84,0,0,1-1-2.78,8,8,0,0,1,.66-3.21,5.46,5.46,0,0,1,1.77-2.31A4.13,4.13,0,0,1,218.66,70.65Zm2.12,3.59a2.45,2.45,0,0,0-.56-1.68,1.92,1.92,0,0,0-1.52-.64,2.63,2.63,0,0,0-1.76.67,4.28,4.28,0,0,0-1.21,1.85,7.7,7.7,0,0,0-.43,2.63,2.65,2.65,0,0,0,.57,1.82,2.08,2.08,0,0,0,1.64.64,2.48,2.48,0,0,0,1.68-.66A4.29,4.29,0,0,0,220.37,77,8.46,8.46,0,0,0,220.78,74.24Z" fill="#3a7a91"/><path d="M228.11,80.81a2.64,2.64,0,0,1-1.53-.45,2.92,2.92,0,0,1-1-1.26h-.09l0,.34q0,.23-.09.63t-1,5h-1.49l3-14.28h1.25l-.23,1.88h.07a4.42,4.42,0,0,1,3.34-2,2.37,2.37,0,0,1,1.94.88,3.81,3.81,0,0,1,.71,2.46,9.57,9.57,0,0,1-.62,3.5,5.81,5.81,0,0,1-1.72,2.48A3.85,3.85,0,0,1,228.11,80.81Zm1.67-8.95a2.6,2.6,0,0,0-1.76.85,6.1,6.1,0,0,0-1.42,2.15,7,7,0,0,0-.53,2.65,2.12,2.12,0,0,0,.5,1.51,1.89,1.89,0,0,0,1.44.53,2.38,2.38,0,0,0,1.66-.73,5.11,5.11,0,0,0,1.24-2.07,8.63,8.63,0,0,0,.47-2.85Q231.39,71.86,229.79,71.86Z" fill="#3a7a91"/><path d="M240.6,70.6a4.1,4.1,0,0,1,1.08.13l-.32,1.35a4,4,0,0,0-.94-.12,2.49,2.49,0,0,0-1.53.54,4.71,4.71,0,0,0-1.25,1.5,7.61,7.61,0,0,0-.79,2.13l-1,4.51h-1.51l2.1-9.86h1.25l-.2,1.83h.09a8.83,8.83,0,0,1,1.07-1.23,3.38,3.38,0,0,1,.89-.58A2.55,2.55,0,0,1,240.6,70.6Z" fill="#3a7a91"/><path d="M243.18,80.63h-1.51l2.1-9.86h1.51Zm1-12.37a1.18,1.18,0,0,1,.29-.82,1,1,0,0,1,.75-.32.71.71,0,0,1,.79.81,1.22,1.22,0,0,1-.3.84.91.91,0,0,1-.7.34.83.83,0,0,1-.59-.22A.82.82,0,0,1,244.19,68.26Z" fill="#3a7a91"/><path d="M252.37,80.63l1.33-6.22a8.19,8.19,0,0,0,.18-1.29,1.28,1.28,0,0,0-.32-.91,1.34,1.34,0,0,0-1-.34,2.66,2.66,0,0,0-1.56.54,4.8,4.8,0,0,0-1.34,1.54,8.11,8.11,0,0,0-.88,2.42l-.91,4.27h-1.51l2.1-9.86h1.25l-.2,1.83h.09A6,6,0,0,1,251.26,71a3.35,3.35,0,0,1,1.67-.45,2.52,2.52,0,0,1,1.8.63,2.29,2.29,0,0,1,.66,1.75,7.39,7.39,0,0,1-.21,1.62l-1.29,6Z" fill="#3a7a91"/><path d="M260,79.58a4.86,4.86,0,0,0,1.29-.23v1.16a4.12,4.12,0,0,1-.76.22,3.9,3.9,0,0,1-.72.09,2.5,2.5,0,0,1-1.72-.54,2,2,0,0,1-.6-1.6,6.55,6.55,0,0,1,.16-1.35l1.14-5.41h-1.55l.13-.66,1.66-.7,1.13-2.05H261l-.49,2.27H263l-.23,1.14h-2.46l-1.16,5.43a6.42,6.42,0,0,0-.16,1.19,1.07,1.07,0,0,0,.26.77A1,1,0,0,0,260,79.58Z" fill="#3a7a91"/><path d="M35.2,50.48a5.37,5.37,0,0,1-5.37,5.37H8.37a5.16,5.16,0,0,1-3.79-1.57A5.17,5.17,0,0,1,3,50.48V23.65a5.17,5.17,0,0,1,1.57-3.79,5.17,5.17,0,0,1,3.79-1.57H29.84a5.37,5.37,0,0,1,5.37,5.37Zm-6.13,0V23.65H9.13V50.48Z" fill="#6fc0de"/><path d="M70.09,29l-4.68,4.6h-13V51.25h16.1v4.6H52.45a5.37,5.37,0,0,1-5.37-5.37V34.38A5.37,5.37,0,0,1,52.45,29Z" fill="#6fc0de"/><path d="M93.09,55.85H82.36A5.37,5.37,0,0,1,77,50.48V33.61H69.32l4.6-4.6H77V23.65l5.37-5.37V29H93.09v4.6H82.36V51.25H93.09Z" fill="#6fc0de"/><path d="M127.59,50.48a5.37,5.37,0,0,1-5.37,5.37h-16.1a5.37,5.37,0,0,1-5.37-5.37V34.38A5.37,5.37,0,0,1,106.12,29h16.1a5.37,5.37,0,0,1,5.37,5.37Zm-5.37.77V33.61h-16.1V51.25Z" fill="#6fc0de"/><path d="M171.68,50.48a5.37,5.37,0,0,1-5.37,5.37H144.84a5.37,5.37,0,0,1-5.37-5.37V23.65a5.37,5.37,0,0,1,5.37-5.37h21.47a5.37,5.37,0,0,1,5.37,5.37V29h-6.13V23.65H145.61V50.48h19.94V45.11h6.13Z" fill="#6fc0de"/><path d="M261,50.48a5.37,5.37,0,0,1-5.37,5.37H234.16a5.37,5.37,0,0,1-5.37-5.37V23.65a5.37,5.37,0,0,1,5.37-5.37h21.47A5.37,5.37,0,0,1,261,23.65V29h-6.13V23.65H234.93V50.48h19.94V45.11H261Z" fill="#6fc0de"/><polygon points="183.18 55.77 189.31 55.77 189.31 50.46 183.18 46.89 183.18 55.77" fill="#6fc0de"/><polygon points="183.18 43.76 189.31 47.66 189.31 44.39 183.18 40.82 183.18 43.76" fill="#6fc0de"/><polygon points="183.18 37.69 189.31 41.59 189.31 38.32 183.18 34.74 183.18 37.69" fill="#6fc0de"/><polygon points="183.18 31.61 189.31 35.52 189.31 32.24 183.18 28.67 183.18 31.61" fill="#6fc0de"/><polygon points="209.25 18.2 209.25 46.19 209.25 50.02 193.99 18.2 183.18 18.2 183.18 25.54 189.31 29.45 189.31 27.79 189.31 24 204.64 55.77 215.38 55.77 215.38 18.2 209.25 18.2" fill="#6fc0de"/></g></svg>