<svg xmlns="http://www.w3.org/2000/svg" xmlns:xlink="http://www.w3.org/1999/xlink" viewBox="0 0 47 208"><defs><clipPath id="clip-path"><polygon points="305 312 313 345.46 105 345.46 105 126 386.56 126 377.3 215 305 312" fill="none"/></clipPath></defs><title>octocnc_sprites</title><g id="decimal"><circle id="dot" cx="22.5" cy="186.5" r="16.5" fill="#6fc0de" stroke="#fff" stroke-linecap="square" stroke-width="2"/></g><g id="spalsh_octo"><g clip-path="url(#clip-path)"><path d="M482.22,282.57c-13.61-29.46-47-52.38-82.43-45.25-64.32,12.95-67.67,90-89.2,111.44-8.56,8.51-21.91-11.12-40.18-17.59,1.13-6.8,1.68-12,7.43-19.27,18.53-23.3,34.71-59.62,32.74-92.68-2.51-42.13-64.44-79.49-123.51-79.76h-.15c-59.07.26-121,37.63-123.51,79.76-2,33.06,14.21,69.38,32.74,92.68,5.75,7.22,6.3,12.47,7.43,19.27C39.36,353.92,64.1,255.42-25.79,237.32c-35.46-7.14-68.83,15.79-82.43,45.25-11.46,24.81-11.46,52,14.61,74.26.68.58-12.07-68.81,39.92-73.5C-17.43,280.05-22,341,1.71,359.13-36.57,410,9.51,438.47,27,442.56c-67.62,27.67-24.27,97.94,24.65,74.61-71.11,85.55,52.14,155.25,93.44,71-23,11.52-61.51,26.76-69-4C69.91,559,97.32,544,103,542.1c41.66-13.61,67.06-32.17,84-52.48,16.92,20.31,42.33,38.87,84,52.48,5.69,1.86,33.1,16.89,26.95,42.12-7.49,30.73-46,15.49-69,4,41.29,84.23,164.55,14.53,93.44-71,48.92,23.33,92.27-46.94,24.65-74.61,17.47-4.09,63.56-32.55,25.28-83.43C396,341,391.42,280.05,427.69,283.33c52,4.69,39.24,74.08,39.92,73.5C493.67,334.58,493.67,307.38,482.22,282.57Z" fill="#3a7a91"/><path d="M482.52,282.57c-13.61-29.46-47-52.38-82.43-45.25C328.17,251.8,337.43,336.1,308,350.25c-7.36,3.54-24.44-14.53-37.28-19.07-18.69-10.7-18.23-30.29-26.29-38.7-14.28-14.91-20.94-7.21-28.56-29,15.46,11.9,32.84,11.12,49.62,11.12a55.55,55.55,0,0,0,0-111.11c-48-.12-47.63,24.15-78.34,33.72-30.71-9.57-30.34-33.85-78.34-33.72a55.55,55.55,0,0,0,0,111.11c16.77,0,34.16.78,49.62-11.12-7.62,21.77-14.27,14.07-28.56,29-8.06,8.41-7.6,28-26.29,38.7C39.36,353.92,64.1,255.42-25.79,237.32c-35.46-7.14-68.83,15.79-82.43,45.25-11.41,24.69-11.45,51.76,14.26,74-6.07-6.41-25.43-83.08,44.92-89.06C13.54,262.14,13,366,101.69,372.48c-37,10.2-76.88-35.7-100-13.35C-36.57,410,9.51,438.47,27,442.56c-67.62,27.67-24.27,97.94,24.65,74.61-71.11,85.55,52.14,155.25,93.44,71-27.89,27.58-52.79,27.25-70.92,19.19C45,594.45,55.48,546.13,85.07,530c53.93-29.38,83.27-26.9,102.08-93.2,18.81,66.3,48.14,63.82,102.08,93.2,29.59,16.12,40,64.43,10.92,77.37-18.13,8.06-43,8.39-70.92-19.19,41.29,84.23,164.55,14.53,93.44-71,48.92,23.33,92.27-46.94,24.65-74.61,17.47-4.09,63.56-32.55,25.28-83.43-23.11-22.35-63,23.55-100,13.35,88.65-6.47,88.15-110.34,150.73-105,70.35,6,51,82.65,44.92,89.06C494,334.33,493.93,307.27,482.52,282.57Z" fill="#6fc0de"/></g></g></svg>