<svg class="icon" style="width: 1em; height: 1em;vertical-align: middle;fill: currentColor;overflow: hidden;" viewBox="0 0 1024 1024" version="1.1" xmlns="http://www.w3.org/2000/svg" p-id="1700"><path d="M187.733333 1024h-170.666666c-10.24 0-17.066667-6.826667-17.066667-17.066667v-170.666666c0-10.24 6.826667-17.066667 17.066667-17.066667h170.666666c10.24 0 17.066667 6.826667 17.066667 17.066667v170.666666c0 10.24-6.826667 17.066667-17.066667 17.066667zM34.133333 989.866667h136.533334v-136.533334H34.133333v136.533334zM1006.933333 204.8h-170.666666c-10.24 0-17.066667-6.826667-17.066667-17.066667v-170.666666c0-10.24 6.826667-17.066667 17.066667-17.066667h170.666666c10.24 0 17.066667 6.826667 17.066667 17.066667v170.666666c0 10.24-6.826667 17.066667-17.066667 17.066667zM853.333333 170.666667h136.533334V34.133333h-136.533334v136.533334z" fill="" p-id="1701"></path><path d="M85.333333 836.266667c-10.24 0-17.066667-6.826667-17.066666-17.066667C68.266667 406.186667 406.186667 68.266667 819.2 68.266667c10.24 0 17.066667 6.826667 17.066667 17.066666s-6.826667 17.066667-17.066667 17.066667C423.253333 102.4 102.4 423.253333 102.4 819.2c0 10.24-6.826667 17.066667-17.066667 17.066667z" fill="" p-id="1702"></path></svg>