<svg class="icon" style="width: 1em; height: 1em;vertical-align: middle;fill: currentColor;overflow: hidden;" viewBox="0 0 1024 1024" version="1.1" xmlns="http://www.w3.org/2000/svg" p-id="1689"><path d="M512 0C229.218 0 0 229.218 0 512s229.218 512 512 512 512-229.218 512-512S794.782 0 512 0zM512 944c-238.594 0-432-193.406-432-432S273.406 80 512 80s432 193.406 432 432S750.594 944 512 944zM736 576c0-123.5-100.5-224-224-224-123.516 0-224 100.5-224 224l-32 0 0 96 96 0 0-96-32 0c0-105.876 86.124-192 192-192s192 86.124 192 192l-32 0 0 96 96 0 0-96L736 576zM320 640l-32 0 0-32 32 0L320 640zM736 640l-32 0 0-32 32 0L736 640z" p-id="1690"></path></svg>