<svg class="icon" style="width: 1em; height: 1em;vertical-align: middle;fill: currentColor;overflow: hidden;" viewBox="0 0 1024 1024" version="1.1" xmlns="http://www.w3.org/2000/svg" p-id="755"><path d="M951.711773 350.919134H40.066851c-9.022145 0-16.336317 10.6951-16.336317 23.890625v191.120998c0 13.195526 7.314171 23.890625 16.336317 23.890626h911.644922c9.021145 0 16.336317-10.6951 16.336317-23.890626V374.809759c0.001001-13.195526-7.314171-23.890625-16.336317-23.890625z m-587.828246 177.631305c-3.189819 7.538299-8.207681 14.933517-15.047581 22.191656-6.844904 7.25914-15.582887 13.153502-26.21295 17.682084-10.634065 4.528583-23.02313 6.795876-37.170199 6.795876-10.726117 0-20.478679-1.018581-29.261688-3.05174-8.786011-2.032159-16.760559-5.199966-23.923644-9.499418-7.167087-4.299452-13.754845-9.962682-19.762271-16.99069-5.36506-6.379638-9.940669-13.521712-13.73083-21.42722-3.794164-7.903507-6.635784-16.34232-8.529865-25.310435-1.897082-8.967114-2.843622-18.491546-2.843622-28.570294 0-16.364333 2.380358-31.01869 7.144074-43.966074 4.760715-12.943382 11.580605-24.014696 20.455667-33.214943 8.878063-9.199246 19.276994-16.203241 31.204796-21.011984 11.926802-4.806741 24.639052-7.212113 38.139752-7.212113 16.457386 0 31.112744 3.282872 43.965073 9.847616 12.850329 6.566745 22.697945 14.679372 29.540848 24.339882 6.842903 9.663511 10.261852 18.792718 10.261852 27.391622 0 4.714689-1.663949 8.876062-4.991847 12.482118-3.328899 3.605056-7.350192 5.408084-12.065881 5.408085-5.271006 0-9.22326-1.247712-11.857762-3.745136-2.636504-2.496424-5.572178-6.794875-8.807023-12.897356-5.364059-10.076747-11.675659-17.614046-18.932798-22.606893-7.25914-4.992847-16.203241-7.489271-26.836305-7.489271-16.919649 0-30.396335 6.427666-40.427056 19.277994-10.032722 12.85333-15.047582 31.113745-15.047582 54.781243 0 15.811017 2.218265 28.964519 6.655796 39.458503 4.439532 10.493985 10.726117 18.330454 18.861757 23.507407 8.134639 5.179954 17.660072 7.766429 28.571295 7.766429 11.833749 0 21.843458-2.932673 30.026124-8.806022 8.182667-5.870348 14.354186-14.494266 18.514559-25.864751 1.757002-5.362058 3.929241-9.730549 6.517717-13.107475 2.588476-3.372924 6.747848-5.061887 12.48312-5.061887 4.898794 0 9.106193 1.710976 12.620197 5.130926 3.513004 3.421952 5.271006 7.675377 5.271006 12.758276 0 6.475693-1.593909 13.478687-4.784729 21.013985z m212.541215 19.90235c0 17.844177-7.397219 26.766265-22.190655 26.766266-3.698109 0-7.026007-0.532304-9.984695-1.59491-2.959688-1.064607-5.73427-2.751569-8.320745-5.061887-2.590477-2.311318-4.993848-5.01486-7.213114-8.114628a554.065991 554.065991 0 0 1-6.656796-9.500418l-77.250057-118.441549v119.135945c0 7.764428-1.803028 13.637778-5.409085 17.613045-3.606057 3.974267-8.230694 5.963401-13.86891 5.963401-5.825322 0-10.493985-2.011147-14.007988-6.034441-3.513004-4.021293-5.270006-9.866627-5.270006-17.542005V394.785151c0-6.656796 0.737421-11.881776 2.219266-15.672939 1.754-4.160373 4.666661-7.558311 8.736982-10.193813 4.06732-2.634502 8.459825-3.953255 13.174514-3.953255 3.698109 0 6.865916 0.603344 9.500418 1.802028a22.994114 22.994114 0 0 1 6.935956 4.854769c1.986133 2.035161 4.022294 4.669663 6.10248 7.905508 2.080186 3.236846 4.230413 6.612771 6.449679 10.125775l79.190163 119.827339V388.543591c0-7.857481 1.686962-13.751843 5.063888-17.683085 3.374925-3.92824 7.926521-5.894362 13.65979-5.894361 5.916374 0 10.587038 1.966121 14.00899 5.894361 3.417949 3.932243 5.129926 9.825604 5.129925 17.683085V548.452789z m213.512769-19.90235c-3.189819 7.538299-8.20568 14.933517-15.046581 22.191656-6.843903 7.25914-15.580886 13.153502-26.21395 17.682084-10.633064 4.528583-23.02213 6.795876-37.168198 6.795876-10.726117 0-20.47968-1.018581-29.262689-3.05174-8.786011-2.032159-16.759558-5.199966-23.925645-9.499418-7.165086-4.299452-13.752843-9.962682-19.76127-16.99069-5.363059-6.379638-9.94167-13.521712-13.731831-21.42722-3.792163-7.903507-6.634784-16.34232-8.527864-25.310435-1.897082-8.967114-2.843622-18.491546-2.843621-28.570294 0-16.364333 2.379357-31.01869 7.143073-43.966074 4.760715-12.943382 11.580605-24.014696 20.456667-33.214943 8.875062-9.199246 19.275993-16.203241 31.203796-21.011984 11.928803-4.806741 24.639052-7.212113 38.140752-7.212113 16.455385 0 31.110743 3.282872 43.963073 9.847616 12.851329 6.566745 22.696944 14.679372 29.540847 24.339882 6.841902 9.663511 10.263854 18.792718 10.263854 27.391622 0 4.714689-1.66495 8.876062-4.992848 12.482118-3.327898 3.605056-7.352193 5.408084-12.065881 5.408085-5.271006 0-9.22326-1.247712-11.857763-3.745136-2.637504-2.496424-5.572178-6.794875-8.808023-12.897356-5.362058-10.076747-11.673658-17.614046-18.930796-22.606893-7.25914-4.992847-16.205242-7.489271-26.836305-7.489271-16.92065 0-30.397336 6.427666-40.428057 19.277994-10.032722 12.85333-15.047582 31.113745-15.047582 54.781243 0 15.811017 2.218265 28.964519 6.656797 39.458503 4.437531 10.493985 10.725117 18.330454 18.862757 23.507407 8.13564 5.179954 17.658071 7.766429 28.569294 7.766429 11.83475 0 21.844458-2.932673 30.026124-8.806022 8.182667-5.870348 14.354186-14.494266 18.513558-25.864751 1.757002-5.362058 3.930241-9.730549 6.519719-13.107475 2.588476-3.372924 6.748849-5.061887 12.48412-5.061887 4.898794 0 9.105193 1.710976 12.621198 5.130926 3.511002 3.421952 5.269005 7.675377 5.269005 12.758276 0 6.475693-1.59591 13.478687-4.78573 21.013985z" p-id="756"></path><path d="M746.093506 973.618267H88.423429c-11.052303 0-20.011413-8.959109-20.011413-20.011413V46.336426c0-10.764139 8.514856-19.599178 19.270991-19.997405 12.383062-0.458261 304.415612-11.09833 404.503693 0.111064 10.821171 1.211691 33.025835 2.658516 56.534242 4.19039 52.553972 3.424953 91.051928 6.126494 107.845506 9.710538 10.809165 2.306315 17.701095 12.938379 15.39478 23.747543s-12.944382 17.701095-23.746543 15.393779c-15.245695-3.252855-63.402159-6.391645-102.096227-8.914083-25.027273-1.63093-46.6406-3.039734-58.385298-4.355484-82.713172-9.264284-311.339561-2.75257-379.298318-0.545311v867.917984H746.093506c11.052303 0 20.011413 8.96011 20.011413 20.011413 0 11.052303-8.959109 20.011413-20.011413 20.011413z" p-id="757"></path><path d="M895.763865 305.602289h-243.058619c-11.052303 0-20.011413-8.959109-20.011413-20.011413V59.921174a20.012413 20.012413 0 0 1 24.187795-19.571162c73.806093 15.748982 130.427384 42.720364 173.099721 82.455025 42.844435 39.894752 70.757354 91.746324 85.333667 158.516404a20.014414 20.014414 0 0 1-19.551151 24.280848z m-223.047206-40.022826h197.338544c-27.755829-95.200294-89.852244-151.908635-197.338544-180.328844v180.328844zM897.215693 974.952027c-11.052303 0-20.011413-8.959109-20.011412-20.011412V685.201779c0-11.051303 8.959109-20.011413 20.011412-20.011413s20.011413 8.96011 20.011413 20.011413v269.738836c0 11.052303-8.959109 20.011413-20.011413 20.011412z" p-id="758"></path><path d="M897.215693 593.119263c-11.052303 0-20.011413-8.96011-20.011412-20.011412V285.590876c0-11.052303 8.959109-20.011413 20.011412-20.011413s20.011413 8.959109 20.011413 20.011413v287.516975c0 11.051303-8.959109 20.011413-20.011413 20.011412zM891.263299 974.955029c-3.632071 0-7.307167-0.987563-10.611052-3.059745l-89.181862-55.919892c-9.36334-5.871349-12.194955-18.221392-6.323606-27.584732s18.221392-12.194955 27.584732-6.323606l89.181861 55.919892c9.36334 5.871349 12.194955 18.221392 6.323607 27.584732-3.800167 6.059456-10.312882 9.383351-16.97368 9.383351z" p-id="759"></path><path d="M895.096485 974.955029c-6.660799 0-13.173513-3.323896-16.97268-9.383351-5.871349-9.36334-3.040734-21.713383 6.323606-27.584732l89.181862-55.919892c9.36334-5.870348 21.714384-3.039734 27.584732 6.323606 5.871349 9.36334 3.040734 21.714384-6.323607 27.584732l-89.181861 55.919892a19.922362 19.922362 0 0 1-10.612052 3.059745z" p-id="760"></path></svg>