<svg class="icon" style="width: 1em; height: 1em;vertical-align: middle;fill: currentColor;overflow: hidden;" viewBox="0 0 1024 1024" version="1.1" xmlns="http://www.w3.org/2000/svg" p-id="500"><path d="M924.427 84.347H99.573c-7.863 0-14.227 6.378-14.227 14.227v625.738c0 7.878 6.364 14.228 14.227 14.228h28.439V909.2H99.573c-7.863 0-14.227 6.378-14.227 14.227 0 7.848 6.364 14.227 14.227 14.227H924.427c7.848 0 14.227-6.379 14.227-14.227 0-7.849-6.379-14.227-14.227-14.227h-28.424V738.539h28.424c7.848 0 14.227-6.35 14.227-14.197V98.573c-0.001-7.848-6.38-14.226-14.227-14.226z m-14.198 455.106H654.208V112.8h256.021v426.653z m-284.474 0h-99.528v-56.906c0-7.849-6.363-14.197-14.227-14.197H312.9c-7.863 0-14.227 6.349-14.227 14.197v56.906h-99.557V112.8h99.557v127.981c0 0.147 0.015 0.265 0.015 0.382a13.183 13.183 0 0 0 0.206 1.998c0.015 0.147 0.03 0.294 0.059 0.441 0.118 0.559 0.265 1.088 0.426 1.617 0.015 0 0.015 0.029 0.029 0.059l28.438 85.331a14.22 14.22 0 0 0 13.492 9.729h14.227v42.68c0 7.848 6.364 14.197 14.212 14.197h85.331c7.863 0 14.227-6.349 14.227-14.197v-42.68h14.212c6.128 0 11.566-3.91 13.492-9.729l28.454-85.331c0-0.03 0.015-0.059 0.015-0.059 0.176-0.529 0.323-1.058 0.426-1.617 0.029-0.147 0.044-0.294 0.073-0.441 0.06-0.353 0.118-0.705 0.147-1.058 0.029-0.323 0.044-0.617 0.044-0.94 0-0.118 0.029-0.235 0.029-0.382V112.8h99.528v426.653z m-127.982 0H327.112v-42.68h170.662v42.68zM384.004 340.339h56.892v28.453h-56.892v-28.453z m71.104-28.454H351.582l-18.959-56.877h159.653l-18.974 56.877h-18.194zM497.773 112.8v113.755H327.112V112.8h170.661z m-383.988 0h56.892v426.653h-56.892V112.8z m42.666 796.4V738.539h56.892V909.2h-56.892z m625.768-170.661V909.2H241.781V738.539h540.438z m85.33 170.661h-56.906V738.539h56.906V909.2z m42.68-199.085H113.784V567.877H910.229v142.238zM696.888 283.462h170.661c7.849 0 14.228-6.378 14.228-14.227V155.451c0-7.848-6.379-14.227-14.228-14.227H696.888c-7.877 0-14.227 6.378-14.227 14.227v113.784c0 7.848 6.35 14.227 14.227 14.227z m14.226-113.785h142.208v85.331H711.114v-85.331zM696.888 382.99c7.849 0 14.227-6.349 14.227-14.197v-42.68c0-7.848-6.378-14.227-14.227-14.227-7.877 0-14.227 6.378-14.227 14.227v42.68c0 7.847 6.35 14.197 14.227 14.197zM867.549 311.885c-7.877 0-14.227 6.378-14.227 14.227v42.68c0 7.848 6.35 14.197 14.227 14.197 7.849 0 14.228-6.349 14.228-14.197v-42.68c-0.001-7.848-6.38-14.227-14.228-14.227zM810.643 382.99c7.878 0 14.227-6.349 14.227-14.197v-42.68c0-7.848-6.349-14.227-14.227-14.227-7.818 0-14.227 6.378-14.227 14.227v42.68c0 7.847 6.408 14.197 14.227 14.197zM753.766 311.885c-7.849 0-14.197 6.378-14.197 14.227v42.68c0 7.848 6.349 14.197 14.197 14.197 7.848 0 14.227-6.349 14.227-14.197v-42.68c-0.001-7.848-6.38-14.227-14.227-14.227zM696.888 496.774h56.878c7.848 0 14.227-6.349 14.227-14.227V425.67c0-7.848-6.379-14.227-14.227-14.227h-56.878c-7.877 0-14.227 6.378-14.227 14.227v56.877c0 7.878 6.35 14.227 14.227 14.227z m14.226-56.878h28.454v28.424h-28.454v-28.424zM867.549 411.443h-56.906c-7.818 0-14.227 6.378-14.227 14.227v56.877c0 7.877 6.408 14.227 14.227 14.227h56.906c7.849 0 14.228-6.349 14.228-14.227V425.67c-0.001-7.848-6.38-14.227-14.228-14.227z m-14.227 56.877h-28.453v-28.424h28.453v28.424zM227.569 596.331c-23.574 0-42.666 19.105-42.666 42.65 0 23.574 19.092 42.68 42.666 42.68 23.559 0 42.666-19.105 42.666-42.68 0-23.544-19.107-42.65-42.666-42.65z m0 56.877c-7.863 0-14.227-6.349-14.227-14.227 0-7.849 6.364-14.197 14.227-14.197s14.212 6.349 14.212 14.197c0 7.879-6.349 14.227-14.212 14.227zM341.339 596.331c-23.574 0-42.666 19.105-42.666 42.65 0 23.574 19.091 42.68 42.666 42.68 23.574 0 42.665-19.105 42.665-42.68 0-23.544-19.091-42.65-42.665-42.65z m0 56.877c-7.863 0-14.227-6.349-14.227-14.227 0-7.849 6.364-14.197 14.227-14.197s14.227 6.349 14.227 14.197a14.21 14.21 0 0 1-14.227 14.227zM455.108 596.331c-23.559 0-42.665 19.105-42.665 42.65 0 23.574 19.106 42.68 42.665 42.68 23.574 0 42.666-19.105 42.666-42.68-0.001-23.544-19.092-42.65-42.666-42.65z m0 56.877c-7.863 0-14.212-6.349-14.212-14.227 0-7.849 6.364-14.197 14.212-14.197 7.863 0 14.227 6.349 14.227 14.197a14.21 14.21 0 0 1-14.227 14.227zM568.906 596.331c-23.573 0-42.68 19.105-42.68 42.65 0 23.574 19.106 42.68 42.68 42.68 23.545 0 42.651-19.105 42.651-42.68 0.001-23.544-19.106-42.65-42.651-42.65z m0 56.877a14.201 14.201 0 0 1-14.227-14.227c0-7.849 6.35-14.197 14.227-14.197 7.819 0 14.197 6.349 14.197 14.197 0.001 7.879-6.348 14.227-14.197 14.227zM682.661 681.661c23.574 0 42.681-19.105 42.681-42.68 0-23.545-19.106-42.65-42.681-42.65s-42.68 19.105-42.68 42.65c0 23.575 19.106 42.68 42.68 42.68z m0-56.877c7.878 0 14.227 6.349 14.227 14.197a14.2 14.2 0 0 1-14.227 14.227 14.201 14.201 0 0 1-14.227-14.227c0.001-7.848 6.35-14.197 14.227-14.197zM796.416 681.661c23.574 0 42.68-19.105 42.68-42.68 0-23.545-19.105-42.65-42.68-42.65-23.545 0-42.65 19.105-42.65 42.65 0 23.575 19.105 42.68 42.65 42.68z m0-56.877c7.878 0 14.227 6.349 14.227 14.197a14.2 14.2 0 0 1-14.227 14.227c-7.819 0-14.197-6.349-14.197-14.227 0-7.848 6.348-14.197 14.197-14.197z" p-id="501"></path></svg>