<svg class="icon" style="width: 1em; height: 1em;vertical-align: middle;fill: currentColor;overflow: hidden;" viewBox="0 0 1024 1024" version="1.1" xmlns="http://www.w3.org/2000/svg" p-id="740"><path d="M952.985872 371.0993H55.045811c-8.8878 0-16.090997 10.534501-16.090997 23.531575V582.878482c0 12.997073 7.203197 23.531574 16.090997 23.531575h897.940061c8.886802 0 16.090997-10.534501 16.090997-23.531575V394.630875c-0.000997-12.997073-7.204195-23.531574-16.090997-23.531575zM373.995241 546.06059c-3.142796 7.424619-8.083898 14.709603-14.821311 21.857943-6.741403 7.150335-15.348934 12.95618-25.820599 17.417534-10.471665 4.460357-22.673813 6.693528-36.608439 6.693528-10.566418 0-20.174338-1.003381-28.82376-3.006153-8.653412-2.001775-16.505914-5.121631-23.564489-9.356576-7.05658-4.234945-13.546639-9.812386-19.465189-16.734318-5.283209-6.283598-9.790444-13.319232-13.524696-21.105906-3.736247-7.785677-6.535939-16.094986-8.403065-24.929924-1.866129-8.831946-2.798694-18.213456-2.798694-28.140543 0-16.117927 2.342884-30.552248 7.034637-43.303962 4.688761-12.748721 11.406226-23.653257 20.147408-32.715601 8.745172-9.062344 18.989431-15.960338 30.736767-20.696973 11.747335-4.733644 24.26865-7.103457 37.565939-7.103458 16.209687 0 30.646003 3.234557 43.303962 9.698683 12.657958 6.467119 22.356641 14.459256 29.097046 23.974419 6.740405 9.518154 10.108613 18.510681 10.108613 26.980571 0 4.643878-1.63972 8.74218-4.918162 12.292911s-7.240101 5.327094-11.883978 5.327094c-5.190451 0-9.083289-1.228792-11.678515-3.688372-2.59722-2.458582-5.487675-6.69253-8.675355-12.703838-5.281214-9.926089-11.497986-17.349711-18.647324-22.266876s-15.960338-7.376744-26.431005-7.376744c-16.667492 0-29.940844 6.331473-39.820056 18.988434-9.883201 12.659953-14.823306 30.646003-14.823306 53.959147 0 15.573348 2.185296 28.528531 6.556884 38.86455 4.371589 10.337017 10.564423 18.055868 18.578504 23.153561 8.01408 5.101683 17.394594 7.649033 28.140543 7.649034 11.65757 0 21.514839-2.88846 29.575797-8.67336 8.058963-5.781907 14.137097-14.275735 18.236396-25.476497 1.729485-5.280217 3.870896-9.583982 6.420241-12.909303 2.549345-3.323325 6.645653-4.985985 12.293909-4.985984 4.826401 0 8.968589 1.6856 12.431549 5.053807 3.459968 3.370203 5.191448 7.560265 5.191449 12.568193 0 6.375358-1.569902 13.273352-4.711701 20.694979z m209.345534 19.603827c0 17.57612-7.286978 26.365178-21.856945 26.365178-3.643489 0-6.920934-0.524631-9.835327-1.5709-2.91539-1.049261-5.648256-2.708929-8.194609-4.985985-2.552338-2.276059-4.919159-4.940105-7.103457-7.992137a541.556348 541.556348 0 0 1-6.557882-9.358571l-76.08938-116.659478v117.343692c0 7.648036-1.774368 13.433933-5.327094 17.348714-3.551729 3.914781-8.106838 5.873668-13.660342 5.873667-5.737024 0-10.337017-1.980829-13.796985-5.943485-3.461963-3.960661-5.190451-9.718631-5.190451-17.278896V414.306514c0-6.558879 0.726105-11.702452 2.184298-15.438699 1.728488-4.097305 4.597-7.444567 8.605537-10.039793 4.006542-2.594228 8.333247-3.892838 12.977125-3.892838 3.643489 0 6.763345 0.594448 9.358571 1.776363a22.606988 22.606988 0 0 1 6.831168 4.780521c1.957889 2.003769 3.961659 4.599992 6.010311 7.786674 2.048652 3.188676 4.167122 6.512999 6.352418 9.972967l78.000391 118.025911v-119.119057c0-7.739796 1.659668-13.544644 4.98798-17.416537 3.322328-3.869898 7.805625-5.806842 13.452883-5.806842 5.827787 0 10.426782 1.935946 13.797983 5.806842 3.36721 3.871893 5.053808 9.67674 5.053807 17.416537v157.505854z m210.303036-19.603827c-3.139804 7.424619-8.082901 14.709603-14.820314 21.857943-6.741403 7.150335-15.346939 12.95618-25.819602 17.417534-10.47366 4.460357-22.675808 6.693528-36.608439 6.693528-10.566418 0-20.175335-1.003381-28.82376-3.006153-8.653412-2.001775-16.508906-5.121631-23.565486-9.356576-7.057577-4.234945-13.546639-9.812386-19.465189-16.734318-5.284206-6.283598-9.792438-13.319232-13.524695-21.105906-3.73525-7.785677-6.536936-16.094986-8.402068-24.929924-1.866129-8.831946-2.800689-18.213456-2.800689-28.140543 0-16.117927 2.343882-30.552248 7.036632-43.303962 4.689758-12.748721 11.405228-23.653257 20.148405-32.715601 8.74218-9.062344 18.985441-15.960338 30.735769-20.696973 11.747335-4.733644 24.267653-7.103457 37.56594-7.103458 16.207692 0 30.646003 3.234557 43.302964 9.698683 12.656961 6.467119 22.355644 14.459256 29.097046 23.974419 6.73841 9.518154 10.10961 18.510681 10.109611 26.980571 0 4.643878-1.63972 8.74218-4.918162 12.292911-3.27944 3.551729-7.242096 5.327094-11.883979 5.327094-5.190451 0-9.085284-1.228792-11.68051-3.688372-2.596223-2.458582-5.487675-6.69253-8.674357-12.703838-5.282212-9.926089-11.496989-17.349711-18.646326-22.266876-7.150335-4.918162-15.960338-7.376744-26.431006-7.376744-16.667492 0-29.940844 6.331473-39.82205 18.988434-9.883201 12.659953-14.821311 30.646003-14.821311 53.959147 0 15.573348 2.185296 28.528531 6.556884 38.86455 4.370591 10.337017 10.563426 18.055868 18.577506 23.153561 8.013083 5.101683 17.393597 7.649033 28.142538 7.649034 11.656572 0 21.513841-2.88846 29.574799-8.67336 8.057966-5.781907 14.1361-14.275735 18.2354-25.476497 1.729485-5.280217 3.870896-9.583982 6.42024-12.909303 2.549345-3.323325 6.647647-4.985985 12.295904-4.985984 4.825404 0 8.967591 1.6856 12.430552 5.053807 3.458971 3.370203 5.190451 7.560265 5.190451 12.568193 0 6.375358-1.569902 13.273352-4.712698 20.694979z" p-id="741"></path><path d="M750.458539 984.676648H102.674484c-11.017241 0-19.947929-8.930688-19.947929-19.947929V71.095416c0-10.729991 8.487844-19.537002 19.209855-19.933965 12.198159-0.451821 299.85627-10.930468 398.45988 0.110711 10.656184 1.192886 32.531082 2.619163 55.690628 4.128224 51.764875 3.374192 89.686886 6.035246 106.240674 9.567026 10.774874 2.298999 17.644941 12.897333 15.346939 23.67121-2.298001 10.773876-12.894341 17.642946-23.670212 15.346939-14.996853-3.199648-62.412083-6.290579-100.510632-8.773099-24.661624-1.606806-45.959031-2.995182-57.535811-4.291797-81.362615-9.111217-306.11593-2.72389-373.334466-0.542584v854.404704h627.836127c11.017241 0 19.947929 8.931685 19.947929 19.947929-0.000997 11.014249-8.931685 19.945934-19.948927 19.945934z" p-id="742"></path><path d="M897.879718 326.701195h-239.405068c-11.017241 0-19.947929-8.930688-19.947929-19.947929V84.475489a19.947929 19.947929 0 0 1 24.111061-19.509074c72.740123 15.522481 128.546449 42.107086 170.609649 81.274844 42.237745 39.329337 69.753918 90.441915 84.121414 156.257114a19.947929 19.947929 0 0 1-19.489127 24.202822z m-219.457139-39.895858h193.817069c-27.330657-93.413159-88.335414-149.104784-193.817069-177.07178v177.07178zM899.309985 985.989221c-11.017241 0-19.947929-8.930688-19.947929-19.947928V700.35782c0-11.016244 8.930688-19.947929 19.947929-19.947929s19.947929 8.931685 19.947929 19.947929v265.683473c0 11.017241-8.930688 19.947929-19.947929 19.947928z" p-id="743"></path><path d="M899.309985 609.896955c-11.017241 0-19.947929-8.931685-19.947929-19.947929V306.753266c0-11.017241 8.930688-19.947929 19.947929-19.947929s19.947929 8.930688 19.947929 19.947929v283.19576c0 11.016244-8.930688 19.947929-19.947929 19.947929zM805.64249 775.387965c-6.639668 0-13.131722-3.313351-16.918836-9.353584-5.852722-9.333636-3.03009-21.6445 6.302548-27.497223l87.841702-55.079223c9.335631-5.851725 21.645498-3.03009 27.497223 6.303545 5.852722 9.333636 3.03009 21.6445-6.302548 27.497223L816.220877 772.337926a19.859161 19.859161 0 0 1-10.578387 3.050039z" p-id="744"></path><path d="M985.027233 775.387965a19.848189 19.848189 0 0 1-10.578387-3.050039l-87.840705-55.079223c-9.332639-5.852722-12.156268-18.163587-6.302548-27.497223 5.852722-9.334633 18.165581-12.15527 27.497223-6.303545l87.840704 55.079223c9.332639 5.852722 12.156268 18.163587 6.302549 27.49822-3.787114 6.038238-10.280165 9.352586-16.918836 9.352587z" p-id="745"></path></svg>