<svg class="icon" style="width: 1em; height: 1em;vertical-align: middle;fill: currentColor;overflow: hidden;" viewBox="0 0 1024 1024" version="1.1" xmlns="http://www.w3.org/2000/svg" p-id="1870"><path d="M298.666667 716.8H85.333333v-68.266667h213.333334v68.266667zM938.666667 375.466667H725.333333v-68.266667H938.666667v68.266667z" p-id="1871"></path><path d="M853.333333 955.733333H170.666667c-66.030933 0-102.4-36.369067-102.4-102.4V170.666667c0-66.030933 36.369067-102.4 102.4-102.4h682.666666c66.030933 0 102.4 36.369067 102.4 102.4v682.666666c0 66.030933-36.369067 102.4-102.4 102.4z m-323.413333-34.133333H853.333333c47.223467 0 68.266667-21.0432 68.266667-68.266667V529.066667H529.92v392.533333zM102.4 682.666667v170.666666c0 47.223467 21.0432 68.266667 68.266667 68.266667h325.12V529.066667H102.4v153.6z m427.52-187.733334H921.6V170.666667c0-47.223467-21.0432-68.266667-68.266667-68.266667H529.92v392.533333zM102.4 494.933333h393.386667V102.4H170.666667c-47.223467 0-68.266667 21.0432-68.266667 68.266667v324.266666z" p-id="1872"></path><path d="M392.533333 665.6a34.133333 34.133333 0 0 1-24.132266-58.2656l238.933333-238.933333a34.133333 34.133333 0 1 1 48.264533 48.264533l-118.613333 118.613333-0.034133 0.0512-0.0512 0.034134-0.034134 0.034133s-0.034133-0.017067-0.034133 0.0512c-0.017067-0.017067 0-0.034133-0.0512 0.034133l-0.017067 0.017067-0.017066 0.017067-0.017067 0.017066-0.0512 0.0512-0.017067 0.017067-0.017066 0.017067-0.017067 0.017066-0.034133 0.034134-0.034134 0.034133-0.017066 0.017067-0.4096 0.4096-119.466667 119.466666A33.962667 33.962667 0 0 1 392.533333 665.6z" p-id="1873"></path><path d="M384 742.4h-85.333333a17.066667 17.066667 0 0 1-17.066667-17.066667v-85.333333a17.066667 17.066667 0 0 1 17.066667-17.066667h85.333333a17.066667 17.066667 0 0 1 17.066667 17.066667v85.333333a17.066667 17.066667 0 0 1-17.066667 17.066667z m-68.266667-34.133333h51.2v-51.2h-51.2v51.2z m409.6-307.2h-85.333333a17.066667 17.066667 0 0 1-17.066667-17.066667v-85.333333a17.066667 17.066667 0 0 1 17.066667-17.066667h85.333333a17.066667 17.066667 0 0 1 17.066667 17.066667v85.333333a17.066667 17.066667 0 0 1-17.066667 17.066667z m-68.266666-34.133334h51.2v-51.2h-51.2v51.2z" p-id="1874"></path></svg>
