<svg class="icon" style="width: 1em; height: 1em;vertical-align: middle;fill: currentColor;overflow: hidden;" viewBox="0 0 1024 1024" version="1.1" xmlns="http://www.w3.org/2000/svg" p-id="1895"><path d="M838.826667 147.626667h-8.533334a17.066667 17.066667 0 1 1 0-34.133334h8.533334a17.066667 17.066667 0 1 1 0 34.133334z" p-id="1896"></path><path d="M128.887467 867.84a34.116267 34.116267 0 0 1-34.0992-36.130133C121.992533 367.650133 350.72 120.0128 774.570667 95.6416a594.2784 594.2784 0 0 1 30.651733-0.9216c8.362667-0.5632 16.4352-0.853333 24.2176-0.853333a34.133333 34.133333 0 0 1 0 68.266666c-6.621867 0-13.499733 0.273067-20.650667 0.768-9.6256 0.7168-19.933867 0.3072-30.3616 0.887467-388.932267 22.3744-590.267733 242.141867-615.492266 671.914667a34.1504 34.1504 0 0 1-34.048 32.136533z" p-id="1897"></path><path d="M170.666667 955.733333H85.333333a17.066667 17.066667 0 0 1-17.066666-17.066666v-85.333334a17.066667 17.066667 0 0 1 17.066666-17.066666h25.6V355.976533a56.32 56.32 0 0 1-25.275733-15.803733C74.564267 329.8816 68.266667 315.2384 68.266667 298.666667c0-16.5888 5.9904-30.976 17.800533-42.786134C97.297067 244.6336 111.4112 238.933333 128 238.933333c16.366933 0 30.6176 5.563733 42.359467 16.554667 11.810133 12.561067 17.373867 26.811733 17.373866 43.178667 0 16.5888-5.700267 30.702933-16.964266 41.949866a59.221333 59.221333 0 0 1-25.7024 15.4624V836.266667H170.666667a17.066667 17.066667 0 0 1 17.066666 17.066666v85.333334a17.066667 17.066667 0 0 1-17.066666 17.066666z m-68.266667-34.133333h51.2v-51.2H102.4v51.2z m25.6-648.533333c-7.406933 0-13.056 2.2016-17.783467 6.946133A24.866133 24.866133 0 0 0 102.4 298.666667c0 7.2704 2.269867 12.629333 7.389867 17.390933 5.5808 5.9392 10.939733 8.209067 18.210133 8.209067a24.917333 24.917333 0 0 0 18.653867-7.799467c4.744533-4.744533 6.946133-10.3936 6.946133-17.800533 0-7.645867-2.338133-13.704533-7.355733-19.063467C141.704533 275.4048 135.645867 273.066667 128 273.066667zM938.666667 187.733333h-85.333334a17.066667 17.066667 0 0 1-17.066666-17.066666V85.333333a17.066667 17.066667 0 0 1 17.066666-17.066666h85.333334a17.066667 17.066667 0 0 1 17.066666 17.066666v85.333334a17.066667 17.066667 0 0 1-17.066666 17.066666z m-68.266667-34.133333h51.2V102.4h-51.2v51.2z m-571.733333 34.133333a56.541867 56.541867 0 0 1-42.3424-18.210133C245.230933 159.214933 238.933333 144.571733 238.933333 128c0-16.5888 5.9904-30.976 17.800534-42.786133C267.963733 73.966933 282.077867 68.266667 298.666667 68.266667c16.366933 0 30.6176 5.563733 42.359466 16.554666 7.509333 7.9872 12.4928 16.674133 15.121067 26.146134l450.286933 0.8192a17.066667 17.066667 0 0 1-0.034133 34.133333h-0.034133l-450.218667-0.8192a55.995733 55.995733 0 0 1-14.6944 24.849067A58.624 58.624 0 0 1 298.666667 187.733333z m0-85.333333c-7.406933 0-13.056 2.2016-17.783467 6.946133A24.866133 24.866133 0 0 0 273.066667 128c0 7.2704 2.269867 12.629333 7.389866 17.390933 5.5808 5.9392 10.939733 8.209067 18.210134 8.209067a24.917333 24.917333 0 0 0 18.653866-7.799467c4.744533-4.744533 6.946133-10.3936 6.946134-17.800533 0-7.645867-2.338133-13.704533-7.355734-19.063467C312.3712 104.738133 306.312533 102.4 298.666667 102.4z" p-id="1898"></path></svg>
