<svg class="icon" style="width: 1em; height: 1em;vertical-align: middle;fill: currentColor;overflow: hidden;" viewBox="0 0 1024 1024" version="1.1" xmlns="http://www.w3.org/2000/svg" p-id="1826"><path d="M502.677333 698.752a149.333333 149.333333 0 0 1 196.096-196.096A679.466667 679.466667 0 0 0 810.666667 128h85.333333c0 159.189333-48.426667 307.072-131.370667 429.696a149.333333 149.333333 0 0 1-206.933333 206.933333A764.437333 764.437333 0 0 1 128 896v-85.333333a679.466667 679.466667 0 0 0 374.677333-111.914667zM640 704a64 64 0 1 0 0-128 64 64 0 0 0 0 128z" p-id="1827"></path></svg>