<svg class="icon" style="width: 1em; height: 1em;vertical-align: middle;fill: currentColor;overflow: hidden;" viewBox="0 0 1024 1024" version="1.1" xmlns="http://www.w3.org/2000/svg" p-id="1859"><path d="M153.130667 687.786667c2.069333-6.933333 4.458667-13.866667 7.146666-20.714667C203.904 556.032 318.293333 490.666667 512 490.666667c159.786667 0 241.152-53.141333 271.658667-141.866667 1.578667-4.650667 3.029333-9.344 4.309333-14.08a149.333333 149.333333 0 1 1 87.616 0.128c-2.773333 13.973333-6.485333 27.904-11.242667 41.685333C821.546667 501.141333 706.901333 576 512 576c-156.053333 0-237.546667 43.84-269.44 115.456a149.333333 149.333333 0 1 1-89.429333-3.669333zM832 256a64 64 0 1 0 0-128 64 64 0 0 0 0 128zM192 896a64 64 0 1 0 0-128 64 64 0 0 0 0 128z" p-id="1860"></path></svg>