<svg class="icon" style="width: 1em; height: 1em;vertical-align: middle;fill: currentColor;overflow: hidden;" viewBox="0 0 1024 1024" version="1.1" xmlns="http://www.w3.org/2000/svg" p-id="1975"><path d="M789.333333 85.333333A64 64 0 0 1 853.333333 149.333333 64 64 0 0 1 789.333333 213.333333c-9.813333 0-19.2-2.133333-27.733333-6.4l-157.44 157.866667 14.506667 19.2c93.44-53.76 203.093333-85.333333 320-85.333333l42.666666 1.28v85.76L938.666667 384c-110.08 0-213.333333 32-298.666667 87.04A168.96 168.96 0 0 1 471.04 640C416 725.333333 384 828.586667 384 938.666667l1.706667 42.666666H299.946667L298.666667 938.666667c0-116.906667 31.573333-226.56 85.333333-320l-19.2-14.506667-157.866667 157.44c4.266667 8.533333 6.4 17.92 6.4 27.733333A64 64 0 0 1 149.333333 853.333333 64 64 0 0 1 85.333333 789.333333 64 64 0 0 1 149.333333 725.333333c9.813333 0 19.2 2.133333 27.733334 6.4l157.44-157.866666C311.893333 545.28 298.666667 508.586667 298.666667 469.333333a170.666667 170.666667 0 0 1 170.666666-170.666666c39.253333 0 75.946667 13.226667 104.533334 35.84l157.866666-157.44c-4.266667-8.533333-6.4-17.92-6.4-27.733334A64 64 0 0 1 789.333333 85.333333M469.333333 384a85.333333 85.333333 0 0 0-85.333333 85.333333 85.333333 85.333333 0 0 0 85.333333 85.333334 85.333333 85.333333 0 0 0 85.333334-85.333334 85.333333 85.333333 0 0 0-85.333334-85.333333z" fill="" p-id="1976"></path></svg>
