<svg class="icon" style="width: 1em; height: 1em;vertical-align: middle;fill: currentColor;overflow: hidden;" viewBox="0 0 1024 1024" version="1.1" xmlns="http://www.w3.org/2000/svg" p-id="2788"><path d="M860.98432 181.3504 299.57632 181.3504c-51.00544 0-92.35456 41.35424-92.35456 92.35968l0 588.0576c0 51.00544 41.34912 92.35968 92.35456 92.35968l561.408 0c51.01056 0 92.35968-41.35424 92.35968-92.35968L953.344 273.70496C953.344 222.70464 911.99488 181.3504 860.98432 181.3504zM900.04992 861.76256c0 21.57568-17.48992 39.0656-39.0656 39.0656L299.57632 900.82816c-21.57568 0-39.06048-17.48992-39.06048-39.0656L260.51584 273.70496c0-21.57568 17.4848-39.06048 39.06048-39.06048l561.408 0c21.57568 0 39.0656 17.4848 39.0656 39.06048L900.04992 861.76256zM628.5056 88.0896c0-14.72-11.93472-26.6496-26.6496-26.6496L161.26976 61.44C110.336 61.44 73.984 102.86592 73.984 153.79456l0 400.61952c0 14.71488 11.9296 26.64448 26.6496 26.64448 14.71488 0 26.64448-11.9296 26.64448-26.64448L127.27808 153.79456c0-21.53472 12.4416-39.06048 33.99168-39.06048l440.58624 0C616.57088 114.73408 628.5056 102.80448 628.5056 88.0896zM820.11136 714.29632c-7.36256 0-13.32736 5.9648-13.32736 13.32736l0 56.3712c0 36.89984-21.60128 36.89984-28.66176 36.89984l-189.58848 0c-7.36768 0-13.32736 5.95456-13.32736 13.32736 0 7.35744 5.95456 13.32224 13.32736 13.32224l189.58848 0c15.104 0 55.31136-6.1952 55.31136-63.54432l0-56.3712C833.4336 720.26112 827.46368 714.29632 820.11136 714.29632zM820.11136 661.00736c-7.36256 0-13.32736 5.95456-13.32736 13.32736l0 13.32224c0 7.36256 5.95968 13.32736 13.32736 13.32736 7.35744 0 13.32736-5.95968 13.32736-13.32736l0-13.32224C833.4336 666.96192 827.46368 661.00736 820.11136 661.00736z" p-id="2789"></path></svg>