<svg xmlns="http://www.w3.org/2000/svg" viewBox="0 0 434.51 278.4">
    <defs>
        <style>
            .cls-1{fill:#30383b;}.cls-1,.cls-2,.cls-4,.cls-5,.cls-6{fill-rule:evenodd;}.cls-2{fill:#f9c857;}.cls-3{font-size:28.05px;fill:#231f20;font-family:Comfortaa,
            Comfortaa;}.cls-4{fill:#c3a767;}.cls-5{fill:#70c0dd;}.cls-6{fill:#76a3b6;}.cls-7{fill:none;}.cls-8{fill:#8c8b8b;}.cls-9{fill:#fff;}
        </style>
    </defs>
    <title>lathe</title>
    <a id="pos_x_anchor">
    <g id="pos_x">
        <g id="pos_x-2" data-name="pos_x">
            <path class="cls-1"
                  d="M649.21,321.44V301.82h-8.44a.87.87,0,0,1-.68-1.42l17-25.19a.87.87,0,0,1,1.21-.24.88.88,0,0,1,.24.24l17,25.24a.87.87,0,0,1-.72,1.35h-8.42v19.62a5.22,5.22,0,0,1-1.54,3.7h0a5.22,5.22,0,0,1-3.7,1.54h-6.66a5.25,5.25,0,0,1-5.24-5.24Z"
                  transform="translate(-466 -244.6)"/>
            <path class="cls-2"
                  d="M651,300.94v20.49a3.5,3.5,0,0,0,3.49,3.49h6.66a3.49,3.49,0,0,0,2.47-1h0a3.48,3.48,0,0,0,1-2.47V300.94a.87.87,0,0,1,.87-.87h7.65l-15.36-22.82L642.4,300.07h7.68A.87.87,0,0,1,651,300.94Z"
                  transform="translate(-466 -244.6)"/>
            <text class="cls-3" transform="translate(178.3 23.95)">+x</text>
        </g>
    </g>
    </a>
    <g id="neg_x">
        <g id="neg_x-2" data-name="neg_x">
            <path class="cls-1"
                  d="M667.48,448.82v19.62h8.44a.87.87,0,0,1,.68,1.42l-17,25.19a.87.87,0,0,1-1.21.24.88.88,0,0,1-.24-.24l-17-25.24a.87.87,0,0,1,.72-1.35h8.42V448.82a5.22,5.22,0,0,1,1.54-3.7h0a5.22,5.22,0,0,1,3.7-1.54h6.66a5.25,5.25,0,0,1,5.24,5.24Z"
                  transform="translate(-466 -244.6)"/>
            <path class="cls-4"
                  d="M665.74,469.31V448.82a3.5,3.5,0,0,0-3.49-3.49h-6.66a3.49,3.49,0,0,0-2.47,1h0a3.48,3.48,0,0,0-1,2.47v20.49a.87.87,0,0,1-.87.87h-7.65L658.93,493l15.36-22.82h-7.68A.87.87,0,0,1,665.74,469.31Z"
                  transform="translate(-466 -244.6)"/>
            <text class="cls-3" transform="translate(177.57 272.4)">-x</text>
        </g>
    </g>
    <g id="pos_z">
        <g id="pos_z-2" data-name="pos_z">
            <path class="cls-1"
                  d="M699.36,377.05H719v-8.44a.87.87,0,0,1,1.42-.68l25.19,17a.87.87,0,0,1,.24,1.21.88.88,0,0,1-.24.24l-25.24,17a.87.87,0,0,1-1.35-.72h0v-8.42H699.36a5.22,5.22,0,0,1-3.7-1.54h0a5.22,5.22,0,0,1-1.54-3.7v-6.66a5.25,5.25,0,0,1,5.24-5.24Z"
                  transform="translate(-466 -244.6)"/>
            <path class="cls-5"
                  d="M719.85,378.79H699.36a3.5,3.5,0,0,0-3.49,3.49v6.66a3.49,3.49,0,0,0,1,2.47h0a3.48,3.48,0,0,0,2.47,1h20.49a.87.87,0,0,1,.87.87V401l22.82-15.36-22.82-15.36v7.68A.87.87,0,0,1,719.85,378.79Z"
                  transform="translate(-466 -244.6)"/>
            <text class="cls-3" transform="translate(282.37 149.98)">+z</text>
        </g>
    </g>
    <g id="neg_z">
        <g id="neg_z-2" data-name="neg_z">
            <path class="cls-1"
                  d="M618.49,394.16H598.87v8.44a.87.87,0,0,1-1.42.68l-25.19-17a.87.87,0,0,1-.24-1.21.88.88,0,0,1,.24-.24l25.24-17a.87.87,0,0,1,1.35.72h0V377h19.62a5.22,5.22,0,0,1,3.7,1.54h0a5.22,5.22,0,0,1,1.54,3.7v6.66a5.25,5.25,0,0,1-5.24,5.24Z"
                  transform="translate(-466 -244.6)"/>
            <path class="cls-6"
                  d="M598,392.42h20.49a3.5,3.5,0,0,0,3.49-3.49v-6.66a3.49,3.49,0,0,0-1-2.47h0a3.48,3.48,0,0,0-2.47-1H598a.87.87,0,0,1-.87-.87v-7.65L574.3,385.61,597.12,401v-7.68A.87.87,0,0,1,598,392.42Z"
                  transform="translate(-466 -244.6)"/>
            <text class="cls-3" transform="translate(77.41 148.98)">-z</text>
        </g>
    </g>
    <g id="chuck">
        <g id="chuck-2" data-name="chuck">
            <rect class="cls-7" x="54.1" y="124.47" width="7.46" height="6.82"/>
            <rect class="cls-7" x="54.1" y="150.71" width="7.46" height="6.82"/>
            <polygon class="cls-7"
                     points="37.31 121.9 37.31 141 37.31 160.11 46.64 158.21 46.64 141 46.64 123.8 37.31 121.9"/>
            <polygon class="cls-7"
                     points="7.46 112.53 7.46 141 7.46 169.48 29.85 169.48 29.85 141 29.85 112.53 7.46 112.53"/>
            <path class="cls-8"
                  d="M520.1,382.72h11.19a3.58,3.58,0,0,0,3.73-3.41V365.66a3.58,3.58,0,0,0-3.73-3.41H516.78l-13.47-2.74v-5.79a3.58,3.58,0,0,0-3.73-3.41H469.73a3.58,3.58,0,0,0-3.73,3.41V417.5a3.58,3.58,0,0,0,3.73,3.41h29.85a3.58,3.58,0,0,0,3.73-3.41V411.7L516.78,409h14.52a3.58,3.58,0,0,0,3.73-3.41V391.9a3.58,3.58,0,0,0-3.73-3.41H520.1v-5.77Zm0-13.65h7.46v6.82H520.1Zm0,26.24h7.46v6.82H520.1Zm-24.25,18.77H473.46v-57h22.39v57Zm16.79-11.27-9.33,1.9V366.5l9.33,1.9v34.42Z"
                  transform="translate(-466 -244.6)"/>
        </g>
    </g>
    <g id="end_stop">
        <g id="endstop">
            <path class="cls-8"
                  d="M896.78,367.46H885.84a3.58,3.58,0,0,0-3.73,3.41v11.32h-6.9V389h6.9v11.32a3.75,3.75,0,0,0,7.46,0v-26h7.21a3.43,3.43,0,1,0,0-6.82Z"
                  transform="translate(-466 -244.6)"/>
            <path class="cls-8"
                  d="M875.2,382.19V372a3.58,3.58,0,0,0-3.73-3.41H839.76A4,4,0,0,0,838,369l-17.28,8.62a9.41,9.41,0,0,0-4.47,4.61H802a3.43,3.43,0,1,0,0,6.82h14.21a9.41,9.41,0,0,0,4.47,4.61h0L838,402.25a4,4,0,0,0,1.78.42H875.2V382.19ZM836,393.51l-11.76-5.87a2.26,2.26,0,0,1-1.3-2v-.07a2.25,2.25,0,0,1,1.3-2L836,377.7Zm31.71,2.34H843.49V375.37h24.25Z"
                  transform="translate(-466 -244.6)"/>
        </g>
    </g>
    <g id="cross_slide">
        <g id="cross_slide-2" data-name="cross_slide">
            <path class="cls-8"
                  d="M680.38,430.42V418.47H637.47v11.94a3.58,3.58,0,0,0,3.73,3.41h35.45A3.58,3.58,0,0,0,680.38,430.42Z"
                  transform="translate(-466 -244.6)"/>
            <rect class="cls-9" x="178.93" y="173.87" width="27.98" height="8.53"/>
            <path class="cls-8"
                  d="M676.64,337.38H641.2a3.58,3.58,0,0,0-3.73,3.41v77.68h42.91V340.79A3.58,3.58,0,0,0,676.64,337.38Z"
                  transform="translate(-466 -244.6)"/>
            <rect class="cls-9" x="178.93" y="99.6" width="27.98" height="77.29"/>
        </g>
    </g>
</svg>
